<svg version="1.2" xmlns="http://www.w3.org/2000/svg" viewBox="0 0 90 92" width="50" height="51">
	<title>noun-drink-7989567</title>
	<style>
		tspan { white-space:pre } 
		.s0 { fill: #000000 } 
		.t1 { font-size: 5px;fill: #000000;font-family: "Arbeit  Regular" } 
	</style>
	<path class="s0" d="m40.5 87l-3.7 2.2c-0.5 0.4-0.8 1-0.6 1.6 0.1 0.7 0.7 1.1 1.4 1.1h30.7c0.7 0 1.3-0.4 1.4-1.1 0.2-0.6-0.1-1.3-0.6-1.6l-3.7-2.2c-5.3-3-8.3-8.3-8.3-14.3v-8.3c0-4.6 1.7-8.5 4.9-11.8l27.8-27.8c0.4-0.4 0.5-1 0.3-1.5-0.2-0.6-0.7-0.9-1.3-0.9h-18.5l7.3-12.7 11.9-6.9c0.7-0.4 0.9-1.3 0.5-2-0.4-0.7-1.2-0.9-1.9-0.5l-12.2 7q-0.4 0.2-0.6 0.6l-8.3 14.5h-32.6c-0.7-8.9-8.2-16-17.3-16-9.6 0-17.3 7.8-17.3 17.4 0 9.6 7.8 17.4 17.3 17.4 4.2 0 8.1-1.4 11.2-4.1l15.6 15.5c3.2 3.3 4.9 7.3 4.9 11.8v8.3c0 6-3 11.3-8.3 14.3zm-23.4-48.7c-7.9 0-14.4-6.5-14.4-14.5 0-8 6.5-14.5 14.4-14.5 7.5 0 13.7 5.8 14.4 13.1h-1.2c-0.2-1.9-0.8-3.6-1.6-5.1q-0.1 0-0.1-0.1 0-0.1-0.1-0.1c-2.3-3.9-6.5-6.5-11.4-6.5-4.8 0-9.1 2.6-11.4 6.5q0 0 0 0.1-0.1 0-0.1 0.1c-1.1 1.9-1.7 4.2-1.7 6.5 0 2.4 0.6 4.6 1.7 6.5q0 0.1 0.1 0.1 0 0.1 0 0.1c2.3 3.9 6.6 6.6 11.4 6.6 3.1 0 6-1.1 8.3-2.9l0.9 0.8c-2.6 2.1-5.8 3.3-9.2 3.3zm-8.1-8.1l6.7-3.9v7.7c-2.7-0.3-5.1-1.8-6.7-3.8zm16.3-12.8l-6.7 3.9v-7.7c2.7 0.3 5.1 1.8 6.7 3.8zm-18.5 6.4q0-2.1 0.7-3.9l6.7 3.9-6.7 3.9c-0.4-1.2-0.7-2.5-0.7-3.9zm8.9-2.5l-6.7-3.9c1.6-2 4-3.5 6.7-3.8zm2.9 6l4.8 4.7c-1.4 1.1-3.1 1.8-4.8 2zm8.1-7.3q0.5 1.1 0.7 2.4h-4.8zm19.2 30.6l-25.3-25.3h44.6l-3.6 6.3c-3.3-0.1-6.2-0.5-8.9-0.9-6.5-1-12.1-1.8-17.6 4.7-0.4 0.6-0.4 1.4 0.1 2l12 11.9q2.8 2.8 4.4 6.3c0.2 0.5 0.7 0.8 1.3 0.8 0.6 0 1.1-0.3 1.3-0.8q1.6-3.5 4.4-6.3l17.5-17.5c0.5-0.5 0.6-1.2 0.2-1.8-0.3-0.5-1-0.8-1.7-0.6-3.5 1.2-6.7 1.8-9.6 2.1l3.6-6.2h16.6l-25.3 25.3c-3.8 3.8-5.7 8.4-5.7 13.8v8.3c0 6.8 3.2 12.7 8.8 16.3h-20.2c5.6-3.6 8.8-9.5 8.8-16.3v-8.3c0-5.4-1.9-10-5.7-13.8zm11-8q0.3 0.2 0.7 0.2c0.5 0 1-0.3 1.3-0.7l4.4-7.6c2.1-0.1 4.4-0.3 6.9-0.8l-13.6 13.6q-2.2 2.1-3.7 4.6-1.5-2.5-3.7-4.6l-11-11c4.1-4.2 8.2-3.6 14.1-2.7 2.3 0.3 4.8 0.7 7.6 0.8l-3.5 6.2c-0.4 0.7-0.2 1.6 0.5 2z"/>
	<text id="Created by Risa Yustissa" style="transform: matrix(1,0,0,1,-5,113.5)" >
		<tspan x="0" y="0" class="t1">Created by Risa Yustissa
</tspan>
	</text>
	<text id="from Noun Project" style="transform: matrix(1,0,0,1,-5,118.5)" >
		<tspan x="0" y="0" class="t1">from Noun Project
</tspan>
	</text>
</svg>